<svg width="56" height="56" viewBox="0 0 56 56" fill="none" xmlns="http://www.w3.org/2000/svg">
<circle cx="28" cy="28" r="28" fill="#1B1B1B"/>
<path d="M38.3502 15.5442C36.4136 14.3782 34.37 13.546 32.2705 13.0684C32.2515 13.0641 32.232 13.0678 32.2146 13.0787C32.1972 13.0897 32.1829 13.1075 32.1735 13.1296C31.9103 13.7418 31.6191 14.5426 31.4156 15.1695C29.1525 14.7189 26.8505 14.7189 24.5874 15.1695C24.3605 14.4711 24.1037 13.7901 23.8184 13.1296C23.8088 13.1077 23.7944 13.0902 23.7771 13.0792C23.7597 13.0683 23.7403 13.0645 23.7213 13.0684C21.6213 13.5434 19.5773 14.3761 17.6416 15.5442C17.6251 15.5525 17.6112 15.5681 17.6024 15.5883C13.731 23.1774 12.6689 30.5803 13.1897 37.8903C13.1915 37.9246 13.2083 37.9588 13.2289 37.9809C15.4833 40.1717 18.0049 41.8444 20.6861 42.9276C20.7051 42.9355 20.7254 42.9352 20.7442 42.9268C20.763 42.9185 20.7793 42.9024 20.7907 42.8811C21.3656 41.8526 21.8771 40.7677 22.3176 39.6265C22.3268 39.603 22.3299 39.5763 22.3265 39.5502C22.3232 39.5242 22.3135 39.5003 22.2989 39.4821C22.2893 39.4701 22.2778 39.4609 22.2653 39.4551C21.4611 39.0496 20.6822 38.5625 19.9357 37.998C19.9149 37.9825 19.8994 37.9571 19.8924 37.927C19.8855 37.8969 19.8876 37.8645 19.8984 37.8364C19.9048 37.8182 19.9144 37.8022 19.9264 37.7899C20.0832 37.6356 20.24 37.474 20.3893 37.3123C20.4025 37.2984 20.4184 37.2895 20.4351 37.2865C20.4519 37.2834 20.469 37.2865 20.4845 37.2952C25.3733 40.2241 30.6652 40.2241 35.4942 37.2952C35.5104 37.286 35.5281 37.2828 35.5455 37.2858C35.5629 37.2888 35.5794 37.298 35.5932 37.3123C35.7425 37.474 35.8993 37.6356 36.0561 37.7899C36.0688 37.8021 36.079 37.8182 36.0858 37.8368C36.0926 37.8554 36.0958 37.876 36.095 37.8966C36.0943 37.9172 36.0897 37.9373 36.0816 37.955C36.0735 37.9727 36.0622 37.9875 36.0486 37.998C35.3039 38.5676 34.524 39.0542 33.7172 39.4527C33.7043 39.4588 33.6926 39.4685 33.683 39.4812C33.6733 39.4939 33.6659 39.5093 33.6612 39.5261C33.6569 39.5425 33.6551 39.5598 33.6561 39.5771C33.6571 39.5944 33.6607 39.6112 33.6668 39.6265C34.1148 40.7653 34.6281 41.8526 35.1918 42.8811C35.2032 42.9024 35.2195 42.9185 35.2383 42.9268C35.2571 42.9352 35.2774 42.9355 35.2964 42.9276C37.9821 41.8477 40.5078 40.1749 42.7648 37.9809C42.7761 37.9706 42.7855 37.9571 42.7923 37.9415C42.7991 37.9258 42.8031 37.9083 42.804 37.8903C43.4275 29.4392 41.7606 22.0974 38.3875 15.5907C38.3841 15.58 38.3791 15.5703 38.3726 15.5623C38.3662 15.5542 38.3586 15.5481 38.3502 15.5442ZM23.0474 33.4382C21.5747 33.4382 20.3632 31.6652 20.3632 29.4906C20.3632 27.3135 21.5523 25.5405 23.0474 25.5405C24.5538 25.5405 25.7541 27.3282 25.7317 29.4906C25.7317 31.6652 24.5426 33.4382 23.0474 33.4382ZM32.9705 33.4382C31.4996 33.4382 30.2863 31.6652 30.2863 29.4906C30.2863 27.3135 31.4754 25.5405 32.9705 25.5405C34.4769 25.5405 35.679 27.3282 35.6548 29.4906C35.6548 31.6652 34.4769 33.4382 32.9705 33.4382Z" fill="white"/>
</svg>
