<svg width="56" height="56" viewBox="0 0 56 56" fill="none" xmlns="http://www.w3.org/2000/svg">
<circle cx="28" cy="28" r="28" fill="#1B1B1B"/>
<path d="M42.9329 16.6144C41.8346 17.1976 40.6393 17.6174 39.4082 17.7808C40.6864 16.8461 41.6436 15.3694 42.1002 13.6278C40.9007 14.5061 39.5868 15.1219 38.2165 15.448C37.6438 14.6944 36.9512 14.0941 36.1818 13.6844C35.4123 13.2747 34.5826 13.0644 33.7442 13.0667C30.3523 13.0667 27.6245 16.451 27.6245 20.604C27.6245 21.1872 27.6819 21.7704 27.7752 22.3315C22.6963 22.0046 18.1666 19.0179 15.1552 14.4451C14.6065 15.5988 14.3189 16.9123 14.3225 18.2491C14.3225 20.8647 15.4029 23.171 17.0504 24.5273C16.0795 24.4803 15.1313 24.1518 14.283 23.5686V23.6614C14.283 27.324 16.3863 30.3593 19.1896 31.0573C18.6632 31.2256 18.1218 31.3117 17.578 31.3136C17.1796 31.3136 16.8027 31.265 16.4222 31.1987C17.1975 34.1854 19.4552 36.3547 22.1436 36.4254C20.0403 38.4533 17.4057 39.6462 14.545 39.6462C14.0317 39.6462 13.558 39.6241 13.0662 39.5534C15.7797 41.6962 18.9994 42.9333 22.4666 42.9333C33.7227 42.9333 39.882 31.455 39.882 21.4921C39.882 21.1651 39.882 20.8382 39.864 20.5112C41.0557 19.4376 42.1002 18.1078 42.9329 16.6144Z" fill="white"/>
</svg>
