<svg width="16" height="16" viewBox="0 0 16 16" fill="none" xmlns="http://www.w3.org/2000/svg">
<path d="M9.21401 8L15.3663 0.666406C15.4695 0.544531 15.3828 0.359375 15.2234 0.359375H13.3531C13.2429 0.359375 13.1374 0.408594 13.0648 0.492969L7.99057 6.54219L2.91635 0.492969C2.84604 0.408594 2.74057 0.359375 2.62807 0.359375H0.757756C0.598381 0.359375 0.511662 0.544531 0.614787 0.666406L6.76713 8L0.614787 15.3336C0.591686 15.3608 0.576866 15.394 0.572086 15.4293C0.567305 15.4647 0.572766 15.5006 0.587819 15.533C0.602872 15.5653 0.626885 15.5926 0.657008 15.6117C0.68713 15.6308 0.722097 15.6408 0.757756 15.6406H2.62807C2.73822 15.6406 2.84369 15.5914 2.91635 15.507L7.99057 9.45781L13.0648 15.507C13.1351 15.5914 13.2406 15.6406 13.3531 15.6406H15.2234C15.3828 15.6406 15.4695 15.4555 15.3663 15.3336L9.21401 8Z" fill="#252525"/>
</svg>
