<svg width="68" height="60" viewBox="0 0 68 60" fill="none" xmlns="http://www.w3.org/2000/svg">
<path d="M54 40H47.3333V46.6667H54M54 26.6667H47.3333V33.3333H54M60.6667 53.3333H34V46.6667H40.6667V40H34V33.3333H40.6667V26.6667H34V20H60.6667M27.3333 13.3333H20.6667V6.66667H27.3333M27.3333 26.6667H20.6667V20H27.3333M27.3333 40H20.6667V33.3333H27.3333M27.3333 53.3333H20.6667V46.6667H27.3333M14 13.3333H7.33333V6.66667H14M14 26.6667H7.33333V20H14M14 40H7.33333V33.3333H14M14 53.3333H7.33333V46.6667H14M34 13.3333V0H0.666668V60H67.3333V13.3333H34Z" fill="#FFD233"/>
</svg>
