<svg width="200" height="120" viewBox="0 0 200 120" fill="none" xmlns="http://www.w3.org/2000/svg">
<g clip-path="url(#clip0_467_604)">
<path d="M153.124 118.22C150.564 116.056 149.008 112.638 149.416 109.311C149.824 105.984 152.35 102.925 155.627 102.218C158.904 101.512 162.64 103.468 163.635 106.669C164.183 100.497 164.814 94.0669 168.095 88.8112C171.066 84.0524 176.212 80.6472 181.789 80.038C187.366 79.4288 193.238 81.7296 196.716 86.1315C200.194 90.5334 201.046 96.9328 198.61 101.986C196.816 105.709 193.509 108.48 190.045 110.734C178.852 117.956 165.427 120.893 152.24 119.005L153.124 118.22Z" fill="#F2F2F2"/>
<path d="M191.202 81.8573C186.6 85.6054 182.378 89.7975 178.598 94.3728C172.682 101.509 167.894 109.509 164.402 118.096C164.147 118.722 165.164 118.995 165.417 118.375C171.13 104.42 180.251 92.1206 191.946 82.6011C192.471 82.1735 191.723 81.4332 191.202 81.8573Z" fill="white"/>
<path d="M64.3832 117.632C67.9001 114.66 70.0363 109.966 69.4761 105.396C68.9159 100.826 65.4461 96.6243 60.9452 95.6538C56.4443 94.6834 51.3136 97.3698 49.9465 101.767C49.1941 93.2899 48.3272 84.458 43.8204 77.2394C39.7397 70.703 32.6718 66.026 25.0118 65.1893C17.3517 64.3526 9.28672 67.5128 4.50944 73.5587C-0.267838 79.6047 -1.43753 88.3943 1.90835 95.3355C4.37314 100.449 8.91416 104.254 13.672 107.35C28.8512 117.227 47.681 121.347 65.5978 118.71" fill="#F2F2F2"/>
<path d="M12.0836 67.6878C18.4041 72.836 24.2025 78.5937 29.3949 84.8778C34.5881 91.1555 39.1601 97.9221 43.0468 105.083C45.2193 109.099 47.1709 113.232 48.8929 117.461C49.244 118.321 47.8469 118.696 47.4997 117.845C44.4497 110.389 40.6761 103.249 36.2333 96.5286C31.812 89.8326 26.7516 83.5812 21.1232 77.8623C17.9398 74.6293 14.581 71.5737 11.062 68.7095C10.3407 68.1221 11.3683 67.1054 12.0836 67.6879L12.0836 67.6878Z" fill="white"/>
<path d="M143.562 119.31H59.6543V33.2184C59.6543 14.9017 74.556 0 92.8726 0H110.344C128.661 0 143.562 14.9017 143.562 33.2184V119.31Z" fill="#F2F2F2"/>
<path d="M126.091 119.31H59.6544V33.2185C59.6361 26.1999 61.8585 19.3588 65.9982 13.691C66.1508 13.483 66.3031 13.2777 66.46 13.0747C68.4624 10.4485 70.8452 8.13564 73.53 6.21248C73.6816 6.10213 73.8339 5.99371 73.9884 5.88527C76.2349 4.33066 78.665 3.05979 81.2234 2.1016C81.3753 2.04401 81.53 1.98632 81.6847 1.93098C83.9985 1.10525 86.397 0.539625 88.836 0.244556C88.9872 0.223901 89.1424 0.207738 89.2977 0.191575C91.6745 -0.0625562 94.0716 -0.0625562 96.4484 0.191575C96.6032 0.207738 96.7584 0.223899 96.9114 0.244777C99.3497 0.539865 101.748 1.10542 104.061 1.93099C104.216 1.98633 104.37 2.04402 104.523 2.10172C107.05 3.04782 109.451 4.29973 111.674 5.82949C111.828 5.93557 111.983 6.044 112.135 6.15243C113.64 7.22662 115.053 8.42334 116.361 9.73036C117.41 10.7787 118.387 11.8962 119.286 13.0754C119.443 13.2778 119.595 13.4831 119.747 13.6907C123.887 19.3585 126.11 26.1998 126.091 33.2185V119.31Z" fill="#CCCCCC"/>
<path d="M120.69 80.8046C122.721 80.8046 124.368 79.1578 124.368 77.1264C124.368 75.095 122.721 73.4482 120.69 73.4482C118.658 73.4482 117.012 75.095 117.012 77.1264C117.012 79.1578 118.658 80.8046 120.69 80.8046Z" fill="#FAC949"/>
<path d="M136.689 116.732H133.87L132.529 105.861L136.689 105.861L136.689 116.732Z" fill="#FFB8B8"/>
<path d="M131.858 115.926H137.293V119.349H128.436C128.436 118.899 128.524 118.454 128.696 118.039C128.868 117.624 129.12 117.246 129.438 116.929C129.756 116.611 130.133 116.359 130.548 116.187C130.963 116.015 131.408 115.926 131.858 115.926Z" fill="#2F2E41"/>
<path d="M150.712 116.732H147.894L146.553 105.861L150.713 105.861L150.712 116.732Z" fill="#FFB8B8"/>
<path d="M145.881 115.926H151.317V119.349H142.459C142.459 118.899 142.548 118.454 142.719 118.039C142.891 117.624 143.144 117.246 143.461 116.929C143.779 116.611 144.156 116.359 144.572 116.187C144.987 116.015 145.432 115.926 145.881 115.926Z" fill="#2F2E41"/>
<path d="M122.551 77.8549C122.348 77.5561 122.214 77.2166 122.156 76.8601C122.099 76.5037 122.121 76.139 122.219 75.7917C122.318 75.4445 122.492 75.1232 122.729 74.8504C122.965 74.5775 123.258 74.3599 123.588 74.2128L133.169 47.8066L137.883 50.3794L126.944 75.614C127.154 76.1843 127.148 76.8119 126.927 77.378C126.706 77.9441 126.284 78.4094 125.743 78.6856C125.201 78.9618 124.577 79.0298 123.989 78.8767C123.401 78.7236 122.889 78.36 122.551 77.8549Z" fill="#FFB8B8"/>
<path d="M149.274 82.8169C148.96 82.6373 148.69 82.3913 148.483 82.096C148.275 81.8008 148.134 81.4636 148.071 81.1082C148.007 80.7528 148.023 80.3878 148.116 80.0389C148.209 79.69 148.377 79.3658 148.609 79.089L145.641 51.1558L151.006 51.4009L152.239 78.8768C152.678 79.2971 152.948 79.8638 152.997 80.4696C153.047 81.0755 152.872 81.6784 152.506 82.164C152.141 82.6497 151.61 82.9844 151.014 83.1047C150.418 83.2251 149.799 83.1227 149.274 82.8169Z" fill="#FFB8B8"/>
<path d="M140.715 42.916C143.833 42.916 146.361 40.3881 146.361 37.2698C146.361 34.1514 143.833 31.6235 140.715 31.6235C137.596 31.6235 135.068 34.1514 135.068 37.2698C135.068 40.3881 137.596 42.916 140.715 42.916Z" fill="#FFB8B8"/>
<path d="M149.237 76.4639H132.215L132.235 76.3314C132.266 76.1334 135.269 56.4604 133.054 50.0243C132.832 49.3918 132.851 48.6995 133.109 48.0805C133.367 47.4616 133.844 46.9598 134.449 46.6718H134.449C137.615 45.1809 143.693 43.3451 148.822 47.8003C149.577 48.4667 150.166 49.2996 150.543 50.2331C150.921 51.1665 151.076 52.175 150.996 53.1787L149.237 76.4639Z" fill="#FAC949"/>
<path d="M135.484 59.3678L127.82 57.8131L131.413 49.3005C131.628 48.476 132.161 47.7704 132.895 47.3385C133.63 46.9066 134.506 46.7837 135.331 46.9967C136.156 47.2097 136.862 47.7412 137.296 48.4746C137.73 49.2081 137.855 50.0836 137.644 50.9091L135.484 59.3678Z" fill="#FAC949"/>
<path d="M145.299 62.2546L144.839 51.6933C144.489 49.708 145.626 47.8312 147.374 47.5244C149.122 47.2188 150.829 48.5957 151.18 50.5956L152.912 60.4641L145.299 62.2546Z" fill="#FAC949"/>
<path d="M148.67 75.1997C151.409 85.6311 151.708 98.8938 150.969 113.361L147.29 112.901L140.624 85.3147L136.946 113.361L132.808 113.131C131.572 97.9515 130.368 84.9203 132.348 76.3491L148.67 75.1997Z" fill="#2F2E41"/>
<path d="M144.435 41.6329C143.381 42.7549 141.425 42.1526 141.288 40.6198C141.277 40.5008 141.278 40.381 141.29 40.2621C141.361 39.5831 141.753 38.9667 141.659 38.2498C141.638 38.0714 141.572 37.9014 141.466 37.7558C140.627 36.6318 138.657 38.2585 137.864 37.241C137.379 36.6171 137.95 35.6348 137.577 34.9375C137.085 34.0171 135.628 34.4711 134.714 33.9671C133.697 33.4063 133.758 31.8463 134.427 30.8975C135.244 29.7404 136.675 29.1229 138.088 29.0339C139.501 28.9449 140.905 29.327 142.224 29.8411C143.723 30.4254 145.21 31.2327 146.132 32.5509C147.254 34.1539 147.362 36.3091 146.801 38.1835C146.46 39.3237 145.295 40.7167 144.435 41.6329Z" fill="#2F2E41"/>
<path d="M193.099 119.458H23.3764C23.304 119.458 23.2346 119.429 23.1834 119.378C23.1322 119.326 23.1035 119.257 23.1035 119.184C23.1035 119.112 23.1322 119.042 23.1834 118.991C23.2346 118.94 23.304 118.911 23.3764 118.911H193.099C193.172 118.911 193.241 118.94 193.292 118.991C193.343 119.042 193.372 119.112 193.372 119.184C193.372 119.257 193.343 119.326 193.292 119.378C193.241 119.429 193.172 119.458 193.099 119.458Z" fill="#3F3D56"/>
<path d="M107.817 94.3676H77.9318C77.5382 94.3697 77.1598 94.2156 76.8797 93.9392C76.5996 93.6627 76.4405 93.2864 76.4375 92.8928V26.1872C76.4405 25.7936 76.5996 25.4173 76.8797 25.1409C77.1598 24.8644 77.5382 24.7103 77.9318 24.7124H107.817C108.21 24.7103 108.589 24.8644 108.869 25.1409C109.149 25.4173 109.308 25.7936 109.311 26.1872V92.8928C109.308 93.2864 109.149 93.6627 108.869 93.9392C108.589 94.2156 108.21 94.3697 107.817 94.3676Z" fill="white"/>
<path d="M109.311 46.2964H76.4375V46.7562H109.311V46.2964Z" fill="#CCCCCC"/>
<path d="M109.424 72.5288H76.5508V72.9886H109.424V72.5288Z" fill="#CCCCCC"/>
<path d="M87.241 24.7129H86.7812V94.598H87.241V24.7129Z" fill="#CCCCCC"/>
<path d="M98.7352 24.7129H98.2754V94.598H98.7352V24.7129Z" fill="#CCCCCC"/>
</g>
<defs>
<clipPath id="clip0_467_604">
<rect width="200" height="119.572" fill="white"/>
</clipPath>
</defs>
</svg>
