<svg width="24" height="24" viewBox="0 0 24 24" fill="none" xmlns="http://www.w3.org/2000/svg">
<path fill-rule="evenodd" clip-rule="evenodd" d="M0.774017 15.0173C0.774017 15.7381 1.1931 16.3855 1.91448 16.3855C3.28363 16.3855 4.19444 15.9896 5.35552 15.4531C6.63388 14.8626 7.6762 14.2614 8.88881 13.5415C9.07872 13.4286 9.2863 13.3333 9.45806 13.1927C9.51316 13.1488 9.56188 13.0976 9.60283 13.0405C9.61657 13.021 9.65779 12.9724 9.65583 12.9481C9.65386 12.9237 9.64061 12.9364 9.62736 12.9383C9.58388 12.9445 9.54079 12.9531 9.4983 12.9641C9.37414 12.9943 9.25293 13.0327 9.12927 13.0711C8.96585 13.1198 8.80293 13.1757 8.63853 13.2278C8.44715 13.289 8.25478 13.3489 8.06192 13.4058C7.85336 13.4666 7.64381 13.5245 7.43231 13.5755C7.2208 13.6266 7.00193 13.6728 6.78405 13.7093C6.57446 13.745 6.3629 13.768 6.15051 13.7784C5.95532 13.7884 5.7596 13.78 5.56604 13.7531C5.39615 13.7301 5.23072 13.6819 5.07531 13.6101C3.4495 12.8318 6.23295 9.59329 6.83067 8.86854C8.55364 6.77696 10.652 5.04631 12.9565 3.61529C13.5587 3.23963 14.1802 2.89511 14.8184 2.58312C15.3866 2.30635 15.9691 2.05099 16.5806 1.88415C17.1749 1.72169 17.8236 1.63267 18.4346 1.75476C18.6276 1.79308 18.8148 1.85586 18.9916 1.94154C19.1454 2.01703 19.2899 2.11008 19.4219 2.2188C19.5623 2.33408 19.6923 2.45811 19.844 2.55929C19.8847 2.58653 19.92 2.58653 19.9421 2.54129C19.9568 2.51162 19.9716 2.48098 19.9853 2.45033C20.0456 2.31385 20.0948 2.17283 20.1325 2.02861C20.2719 1.50961 20.3156 0.838363 19.923 0.41178C19.4219 -0.132515 18.7271 -0.0191812 18.0675 0.0975576C16.3043 0.402538 14.5774 1.29851 13.0159 2.1366C9.81286 3.85314 6.80515 6.10863 4.37356 8.80433C3.21339 10.0797 2.21244 11.4889 1.39234 13.0016C1.28809 13.2059 1.1944 13.4153 1.11164 13.629C0.932525 14.0663 0.774017 14.5401 0.774017 15.0173Z" fill="#3DA1FF"/>
<path fill-rule="evenodd" clip-rule="evenodd" d="M11.818 11.6852C11.9795 11.7591 12.0477 11.6954 12.2288 11.6195L13.5955 11.0674C14.1446 10.8777 16.3318 10.2182 16.9389 10.8928C17.5459 11.5675 17.1288 12.6794 16.7916 13.3779C16.5286 13.9207 16.1581 14.4018 15.767 14.859C15.3489 15.3444 14.943 15.8571 14.4656 16.2871C14.2447 16.4895 14.017 16.684 13.7923 16.8786L12.852 17.7055C12.7117 17.8266 12.5674 17.9438 12.427 18.0577C10.8925 19.2961 7.77881 21.4893 6.03081 22.5453C5.7295 22.7277 4.26073 23.5911 4.1351 23.7613C4.73134 23.7613 6.31887 22.8576 6.85623 22.5939C8.2612 21.8974 10.6575 20.6162 11.9501 19.7893C12.3701 19.5203 12.7416 19.3063 13.1627 19.028C13.5837 18.7498 13.9478 18.5051 14.3404 18.2308C15.3915 17.4866 16.3982 16.6826 17.3555 15.8231C18.2452 15.0327 19.0731 14.1693 19.7694 13.2037C19.9628 12.9352 20.1457 12.6596 20.3181 12.3768C20.8088 11.5665 22.2167 8.61299 20.4569 8.004C19.0456 7.51759 16.4452 8.8669 15.4784 9.42384L13.6087 10.4857C13.2942 10.6793 11.9589 11.4945 11.818 11.6852Z" fill="white"/>
<path fill-rule="evenodd" clip-rule="evenodd" d="M18.4807 5.31974C18.4807 6.0299 19.2266 6.59365 19.8842 6.78432C22.2554 7.47308 24.3989 5.43015 22.492 4.19905C21.059 3.27486 18.4807 3.93249 18.4807 5.31779V5.31974Z" fill="white"/>
</svg>
